<svg xmlns="http://www.w3.org/2000/svg" width="124" height="124" enable-background="new 0 0 124 124" viewBox="0 0 124 124"><circle cx="62.622" cy="61.312" r="40.107" fill="none" stroke="red" stroke-miterlimit="10" stroke-width="4"/><path fill="red" d="M88,54.885C88,48.873,83.127,44,77.115,44h-28.23C42.873,44,38,48.873,38,54.885v13.23
		C38,74.127,42.873,79,48.885,79h28.23C83.127,79,88,74.127,88,68.115V54.885z M70.188,62.167L58.93,68.342
		C58.44,68.606,58,68.252,58,67.695V55.021c0-0.563,0.454-0.917,0.943-0.638l11.336,6.5C70.78,61.167,70.695,61.892,70.188,62.167z"/></svg>